REM DIRINDEX 1\5,1\2\6,1\2\7,1\3\8,1\3\9,1\4\10,1\4\11,1\4\12
REM DIRNAME cjc026,folder01,folder02,folder03,folder04,folder05,folder06,folder07,folder08,folder09,folder10,folder11
TITLE ""
FILE "EJE_DB3000_5th_3B_21.mp3" MP3
  TRACK 01 AUDIO
    TITLE "0:"
    INDEX 01 00:00:00
  TRACK 02 AUDIO
    TITLE "10:cjc026_08967"
    INDEX 01 00:00:08
  TRACK 03 AUDIO
    TITLE "0:"
    INDEX 01 00:01:54
  TRACK 04 AUDIO
    TITLE "11:cjc026_08968"
    INDEX 01 00:02:17
  TRACK 05 AUDIO
    TITLE "0:"
    INDEX 01 00:05:16
  TRACK 06 AUDIO
    TITLE "12:cjc026_08969"
    INDEX 01 00:05:54
  TRACK 07 AUDIO
    TITLE "0:"
    INDEX 01 00:07:25
  TRACK 08 AUDIO
    TITLE "10:cjc026_08970"
    INDEX 01 00:07:60
  TRACK 09 AUDIO
    TITLE "0:"
    INDEX 01 00:09:37
  TRACK 10 AUDIO
    TITLE "11:cjc026_08971"
    INDEX 01 00:09:72
  TRACK 11 AUDIO
    TITLE "0:"
    INDEX 01 00:12:20
  TRACK 12 AUDIO
    TITLE "12:cjc026_08972"
    INDEX 01 00:12:55
  TRACK 13 AUDIO
    TITLE "0:"
    INDEX 01 00:14:32
  TRACK 14 AUDIO
    TITLE "10:cjc026_08973"
    INDEX 01 00:14:67
  TRACK 15 AUDIO
    TITLE "0:"
    INDEX 01 00:16:50
  TRACK 16 AUDIO
    TITLE "11:cjc026_08974"
    INDEX 01 00:17:10
  TRACK 17 AUDIO
    TITLE "0:"
    INDEX 01 00:20:09
  TRACK 18 AUDIO
    TITLE "12:cjc026_08975"
    INDEX 01 00:20:44
  TRACK 19 AUDIO
    TITLE "0:"
    INDEX 01 00:22:24
  TRACK 20 AUDIO
    TITLE "10:cjc026_08976"
    INDEX 01 00:22:61
  TRACK 21 AUDIO
    TITLE "0:"
    INDEX 01 00:24:49
  TRACK 22 AUDIO
    TITLE "11:cjc026_08977"
    INDEX 01 00:25:09
  TRACK 23 AUDIO
    TITLE "0:"
    INDEX 01 00:27:29
  TRACK 24 AUDIO
    TITLE "12:cjc026_08978"
    INDEX 01 00:27:64
  TRACK 25 AUDIO
    TITLE "0:"
    INDEX 01 00:29:49
  TRACK 26 AUDIO
    TITLE "10:cjc026_08979"
    INDEX 01 00:30:12
  TRACK 27 AUDIO
    TITLE "0:"
    INDEX 01 00:31:64
  TRACK 28 AUDIO
    TITLE "11:cjc026_08980"
    INDEX 01 00:32:30
  TRACK 29 AUDIO
    TITLE "0:"
    INDEX 01 00:35:07
  TRACK 30 AUDIO
    TITLE "12:cjc026_08981"
    INDEX 01 00:35:42
  TRACK 31 AUDIO
    TITLE "0:"
    INDEX 01 00:37:22
  TRACK 32 AUDIO
    TITLE "10:cjc026_08982"
    INDEX 01 00:37:59
  TRACK 33 AUDIO
    TITLE "0:"
    INDEX 01 00:39:39
  TRACK 34 AUDIO
    TITLE "11:cjc026_08983"
    INDEX 01 00:40:02
  TRACK 35 AUDIO
    TITLE "0:"
    INDEX 01 00:42:68
  TRACK 36 AUDIO
    TITLE "12:cjc026_08984"
    INDEX 01 00:43:28
  TRACK 37 AUDIO
    TITLE "0:"
    INDEX 01 00:45:10
  TRACK 38 AUDIO
    TITLE "10:cjc026_08985"
    INDEX 01 00:45:45
  TRACK 39 AUDIO
    TITLE "0:"
    INDEX 01 00:47:33
  TRACK 40 AUDIO
    TITLE "11:cjc026_08986"
    INDEX 01 00:47:74
  TRACK 41 AUDIO
    TITLE "0:"
    INDEX 01 00:50:67
  TRACK 42 AUDIO
    TITLE "12:cjc026_08987"
    INDEX 01 00:51:27
  TRACK 43 AUDIO
    TITLE "0:"
    INDEX 01 00:53:18
  TRACK 44 AUDIO
    TITLE "10:cjc026_08988"
    INDEX 01 00:53:56
  TRACK 45 AUDIO
    TITLE "0:"
    INDEX 01 00:55:51
  TRACK 46 AUDIO
    TITLE "11:cjc026_08989"
    INDEX 01 00:56:14
  TRACK 47 AUDIO
    TITLE "0:"
    INDEX 01 00:59:16
  TRACK 48 AUDIO
    TITLE "12:cjc026_08990"
    INDEX 01 00:59:51
  TRACK 49 AUDIO
    TITLE "0:"
    INDEX 01 01:01:44
  TRACK 50 AUDIO
    TITLE "10:cjc026_08991"
    INDEX 01 01:02:04
  TRACK 51 AUDIO
    TITLE "0:"
    INDEX 01 01:03:56
  TRACK 52 AUDIO
    TITLE "11:cjc026_08992"
    INDEX 01 01:04:33
  TRACK 53 AUDIO
    TITLE "0:"
    INDEX 01 01:07:13
  TRACK 54 AUDIO
    TITLE "12:cjc026_08993"
    INDEX 01 01:07:45
  TRACK 55 AUDIO
    TITLE "0:"
    INDEX 01 01:09:22
  TRACK 56 AUDIO
    TITLE "10:cjc026_08994"
    INDEX 01 01:09:68
  TRACK 57 AUDIO
    TITLE "0:"
    INDEX 01 01:11:39
  TRACK 58 AUDIO
    TITLE "11:cjc026_08995"
    INDEX 01 01:12:10
  TRACK 59 AUDIO
    TITLE "0:"
    INDEX 01 01:14:49
  TRACK 60 AUDIO
    TITLE "12:cjc026_08996"
    INDEX 01 01:15:09
  TRACK 61 AUDIO
    TITLE "0:"
    INDEX 01 01:16:53
  TRACK 62 AUDIO
    TITLE "10:cjc026_08997"
    INDEX 01 01:17:24
  TRACK 63 AUDIO
    TITLE "0:"
    INDEX 01 01:19:17
  TRACK 64 AUDIO
    TITLE "11:cjc026_08998"
    INDEX 01 01:19:55
  TRACK 65 AUDIO
    TITLE "0:"
    INDEX 01 01:22:35
  TRACK 66 AUDIO
    TITLE "12:cjc026_08999"
    INDEX 01 01:22:70
  TRACK 67 AUDIO
    TITLE "0:"
    INDEX 01 01:24:63
  TRACK 68 AUDIO
    TITLE "10:cjc026_09000"
    INDEX 01 01:25:24
  TRACK 69 AUDIO
    TITLE "0:"
    INDEX 01 01:27:11
  TRACK 70 AUDIO
    TITLE "11:cjc026_09001"
    INDEX 01 01:27:46
  TRACK 71 AUDIO
    TITLE "0:"
    INDEX 01 01:30:21
  TRACK 72 AUDIO
    TITLE "12:cjc026_09002"
    INDEX 01 01:30:56
  TRACK 73 AUDIO
    TITLE "0:"
    INDEX 01 01:32:44
  TRACK 74 AUDIO
    TITLE "10:cjc026_09003"
    INDEX 01 01:33:04
  TRACK 75 AUDIO
    TITLE "0:"
    INDEX 01 01:34:67
  TRACK 76 AUDIO
    TITLE "11:cjc026_09004"
    INDEX 01 01:35:27
  TRACK 77 AUDIO
    TITLE "0:"
    INDEX 01 01:38:23
  TRACK 78 AUDIO
    TITLE "12:cjc026_09005"
    INDEX 01 01:38:58
  TRACK 79 AUDIO
    TITLE "0:"
    INDEX 01 01:40:46
  TRACK 80 AUDIO
    TITLE "10:cjc026_09006"
    INDEX 01 01:41:06
  TRACK 81 AUDIO
    TITLE "0:"
    INDEX 01 01:42:45
  TRACK 82 AUDIO
    TITLE "11:cjc026_09007"
    INDEX 01 01:43:07
  TRACK 83 AUDIO
    TITLE "0:"
    INDEX 01 01:45:17
  TRACK 84 AUDIO
    TITLE "12:cjc026_09008"
    INDEX 01 01:45:54
  TRACK 85 AUDIO
    TITLE "0:"
    INDEX 01 01:47:18
